<?xml version="1.0" encoding="utf-8"?>
<!-- Generator: Adobe Illustrator 21.0.2, SVG Export Plug-In . SVG Version: 6.00 Build 0)  -->
<svg version="1.1" id="Layer_2" xmlns="http://www.w3.org/2000/svg" xmlns:xlink="http://www.w3.org/1999/xlink" x="0px" y="0px"
	 viewBox="0 0 310 470" style="enable-background:new 0 0 310 470;" xml:space="preserve">
<style type="text/css">
	.st0{fill:none;stroke:#FFFFFF;stroke-miterlimit:10;}
</style>
<path class="st0" d="M144.7,262.6c-4.1,10-14.3-6.7-32.1-4.6c-15.4,2-16.1,21.5-16.1,21.5c-1,20,11,31,10,47.1
	c0.3,10.5-20.7,41.7-20.7,65.5c0,28.7,21.2,45.1,45.8,45.1H155h1.5h23.3c24.6,0,45.8-16.4,45.8-45.1c0-23.8-21-55-20.7-65.5
	c-1-16.1,11.4-27.1,11-47.1c-0.2-11.5-4.7-19.1-10.9-18.6c-12.2,0-5.1,25.3-25.3,29c-5.7,0.6-9.8-2.9-11.3-8.6"/>
<path class="st0" d="M171.7,387h-29.6c-1.3,0-2.3-1-2.3-2.3v-15.3c0-1.3,1-2.3,2.3-2.3h29.6c1.3,0,2.3,1,2.3,2.3v15.3
	C174,386,173,387,171.7,387z"/>
<path class="st0" d="M169.3,360.9h-25.7c-1.3,0-2.3-1-2.3-2.3v-11.3c0-1.3,1-2.3,2.3-2.3h25.7c1.3,0,2.3,1,2.3,2.3v11.3
	C171.7,359.8,170.6,360.9,169.3,360.9z"/>
<path class="st0" d="M169.3,314.7h-25.7c-1.3,0-2.3-1-2.3-2.3v-11.3c0-1.3,1-2.3,2.3-2.3h25.7c1.3,0,2.3,1,2.3,2.3v11.3
	C171.7,313.7,170.6,314.7,169.3,314.7z"/>
<path class="st0" d="M173.5,363.7h-34c-1.3,0-2.3-1-2.3-2.3v-16.8c0-1.3,1-2.3,2.3-2.3h34c1.3,0,2.3,1,2.3,2.3v16.8
	C175.8,362.6,174.8,363.7,173.5,363.7z"/>
<path class="st0" d="M203.7,347.5c5.5,0,8.9,0,8.9,0"/>
<path class="st0" d="M175.8,347.4c4.8,0,9.5,0,13.8,0"/>
<path class="st0" d="M144.3,273c-23.7,3.3-32,69.1-20.3,74.5c3-0.1,7.6-0.1,13.1-0.1"/>
<path class="st0" d="M164.5,83.7h-15.1l-5,209.3c0,1.1,0.9,2.1,2.1,2.1h20c1.1,0,2.1-0.9,2.1-2.1L164.5,83.7z"/>
<path class="st0" d="M196.7,410.6L196.7,410.6c-3.9,0-7.1-3.2-7.1-7.1v-55.3c0-3.9,3.2-7.1,7.1-7.1h0c3.9,0,7.1,3.2,7.1,7.1v55.3
	C203.8,407.4,200.6,410.6,196.7,410.6z"/>
<circle class="st0" cx="196.7" cy="379.6" r="3.7"/>
<circle class="st0" cx="196.7" cy="402.7" r="3.7"/>
<line class="st0" x1="196.7" y1="359.9" x2="196.7" y2="362"/>
<line class="st0" x1="196.7" y1="351.6" x2="196.7" y2="354.8"/>
<rect x="194.1" y="354.8" class="st0" width="5.1" height="5.1"/>
<path class="st0" d="M149.3,83.7l-0.3-0.9c-1-2.7-4.9-4.3-6-5.7c-0.6-0.7-1.6-3.1-1.1-4.7l19.4-60.1c0.3-0.8,1-1.9,1.7-2.7
	c0.7-0.9,1.7-1.5,2.7-1.8l0.4-0.1c1.6-0.4,3.2-0.2,4.6,0.7c1.6,1.1,3.7,3.1,4.5,6c2,6.7-3.8,9.1-4.3,13.8c-1.3,6.7,3.5,9.9,3.3,18
	c-0.2,8.1-7.3,19.1-8,26.5c-0.7,7.3-1.7,10.9-1.7,10.9"/>
<circle class="st0" cx="156.4" cy="124.5" r="1.2"/>
<circle class="st0" cx="156.4" cy="151.8" r="1.2"/>
<circle class="st0" cx="156.4" cy="175" r="1.2"/>
<circle class="st0" cx="156.4" cy="197.1" r="1.2"/>
<circle class="st0" cx="151.8" cy="224.9" r="1.2"/>
<circle class="st0" cx="161.4" cy="224.9" r="1.2"/>
<circle class="st0" cx="156.4" cy="248.7" r="1.2"/>
<circle class="st0" cx="156.4" cy="262.3" r="1.2"/>
<circle class="st0" cx="156.4" cy="274.2" r="1.2"/>
<circle class="st0" cx="156.4" cy="284.9" r="1.2"/>
<line class="st0" x1="148.9" y1="102" x2="164.6" y2="102"/>
<line class="st0" x1="148.9" y1="117.1" x2="164.6" y2="117.1"/>
<line class="st0" x1="148.9" y1="131.7" x2="164.6" y2="131.7"/>
<line class="st0" x1="147.9" y1="145.2" x2="165.6" y2="145.2"/>
<line class="st0" x1="148.1" y1="158.3" x2="165.6" y2="158.3"/>
<line class="st0" x1="147.1" y1="170" x2="165.6" y2="170"/>
<line class="st0" x1="147.1" y1="181.2" x2="166.6" y2="181.2"/>
<line class="st0" x1="147.1" y1="192" x2="166.6" y2="192"/>
<line class="st0" x1="146.7" y1="202.3" x2="166.6" y2="202.3"/>
<line class="st0" x1="146.7" y1="211.7" x2="166.6" y2="211.7"/>
<line class="st0" x1="146.1" y1="220.7" x2="166.6" y2="220.7"/>
<line class="st0" x1="145.7" y1="229.2" x2="167.6" y2="229.2"/>
<line class="st0" x1="145.7" y1="237.3" x2="167.6" y2="237.3"/>
<line class="st0" x1="145.7" y1="245" x2="167.6" y2="245"/>
<line class="st0" x1="145.7" y1="252.1" x2="167.6" y2="252.1"/>
<line class="st0" x1="145.7" y1="258.9" x2="167.6" y2="258.9"/>
<line class="st0" x1="144.7" y1="265.4" x2="167.6" y2="265.4"/>
<line class="st0" x1="144.7" y1="271.3" x2="168.6" y2="271.3"/>
<line class="st0" x1="144.7" y1="277" x2="167.6" y2="277"/>
<line class="st0" x1="144.7" y1="282.2" x2="168.6" y2="282.2"/>
<line class="st0" x1="144.7" y1="287.6" x2="168.6" y2="287.6"/>
<line class="st0" x1="144.7" y1="292" x2="168.6" y2="292"/>
<rect x="144.1" y="375.1" class="st0" width="2.9" height="7.1"/>
<rect x="148.7" y="374.1" class="st0" width="2.9" height="7.1"/>
<rect x="153.2" y="374.1" class="st0" width="2.9" height="7.1"/>
<rect x="157.7" y="373.1" class="st0" width="2.9" height="7.1"/>
<rect x="162.3" y="373.1" class="st0" width="2.9" height="7.1"/>
<rect x="166.8" y="373.1" class="st0" width="2.9" height="7.1"/>
<path class="st0" d="M140.6,63.5l-1.4,4.4c-0.1,0.5-0.6,0.7-1.1,0.6l-1.9-0.6c-0.5-0.1-0.7-0.6-0.6-1.1l1.4-4.4
	c0.1-0.5,0.6-0.7,1.1-0.6l1.9,0.6C140.5,62.6,140.8,63.1,140.6,63.5z"/>
<path class="st0" d="M143.9,53.1l-1.4,4.4c-0.1,0.5-0.6,0.7-1.1,0.6l-1.9-0.6c-0.5-0.1-0.7-0.6-0.6-1.1l1.4-4.4
	c0.1-0.5,0.6-0.7,1.1-0.6l1.9,0.6C143.8,52.1,144,52.6,143.9,53.1z"/>
<path class="st0" d="M147.1,42.6l-1.4,4.4c-0.1,0.5-0.6,0.7-1.1,0.6l-1.9-0.6c-0.5-0.1-0.7-0.6-0.6-1.1l1.4-4.4
	c0.1-0.5,0.6-0.7,1.1-0.6l1.9,0.6C147,41.7,147.3,42.2,147.1,42.6z"/>
<path class="st0" d="M150.4,32.2l-1.4,4.4c-0.1,0.5-0.6,0.7-1.1,0.6l-1.9-0.6c-0.5-0.1-0.7-0.6-0.6-1.1l1.4-4.4
	c0.1-0.5,0.6-0.7,1.1-0.6l1.9,0.6C150.3,31.3,150.5,31.7,150.4,32.2z"/>
<path class="st0" d="M153.7,21.7l-1.4,4.4c-0.1,0.5-0.6,0.7-1.1,0.6l-1.9-0.6c-0.5-0.1-0.7-0.6-0.6-1.1l1.4-4.4
	c0.1-0.5,0.6-0.7,1.1-0.6l1.9,0.6C153.6,20.8,153.8,21.3,153.7,21.7z"/>
<path class="st0" d="M156.9,11.3l-1.4,4.4c-0.1,0.5-0.6,0.7-1.1,0.6l-1.9-0.6c-0.5-0.1-0.7-0.6-0.6-1.1l1.4-4.4
	c0.1-0.5,0.6-0.7,1.1-0.6l1.9,0.6C156.8,10.4,157.1,10.8,156.9,11.3z"/>
<ellipse transform="matrix(1.618934e-02 -0.9999 0.9999 1.618934e-02 76.4913 213.4456)" class="st0" cx="146.7" cy="67.9" rx="1.8" ry="1.8"/>
<ellipse transform="matrix(1.618934e-02 -0.9999 0.9999 1.618934e-02 90.2458 206.628)" class="st0" cx="150.1" cy="57.5" rx="1.8" ry="1.8"/>
<ellipse transform="matrix(1.618934e-02 -0.9999 0.9999 1.618934e-02 104.0004 199.8105)" class="st0" cx="153.5" cy="47.1" rx="1.8" ry="1.8"/>
<ellipse transform="matrix(1.618934e-02 -0.9999 0.9999 1.618934e-02 117.7549 192.9929)" class="st0" cx="156.9" cy="36.7" rx="1.8" ry="1.8"/>
<ellipse transform="matrix(1.618934e-02 -0.9999 0.9999 1.618934e-02 131.5095 186.1753)" class="st0" cx="160.4" cy="26.3" rx="1.8" ry="1.8"/>
<ellipse transform="matrix(1.618934e-02 -0.9999 0.9999 1.618934e-02 145.264 179.3577)" class="st0" cx="163.8" cy="15.9" rx="1.8" ry="1.8"/>
</svg>
