<svg enable-background="new 0 0 310 470" viewBox="0 0 310 470" xmlns="http://www.w3.org/2000/svg"><g fill="none" stroke="#afafaf" stroke-miterlimit="10"><path d="m128.5 277.1 82.8-116.8"/><path d="m159.3 187.1h-8.6c-34.7 0-62.9-28.1-62.9-62.9v-3.2c0-34.7 28.1-62.9 62.9-62.9h8.6c34.7 0 62.9 28.1 62.9 62.9v3.2c-.1 34.8-28.2 62.9-62.9 62.9z"/><g stroke-linecap="square"><path d="m65.9 392.8v-10.8h-5.4"/><path d="m139.8 419.4v-37.4h-5.5"/><path d="m258.2 419.4v-37.4h-5.5"/><path d="m11.5 392.8v-10.8h-5.5"/><path d="m24.6 370.8v11.2h23v23c0 8-6.4 14.4-14.4 14.4"/><path d="m216.3 370.8v11.2h23v23c0 8-6.4 14.4-14.4 14.4"/><path d="m99.6 382h12.9c3.6 0 6.5 2.9 6.5 6.5v30.9h-21.9 27.7"/><path d="m157.8 382v37.4h7.3c10.5 0 19-8.5 19-19v-14c0-2.4-2-4.4-4.4-4.4h-5.7"/><path d="m263.7 382h-5.5"/><path d="m278.2 419.4v-19.6c0-9.8 8-17.8 17.8-17.8h8v37.4h-11.7"/><path d="m278.2 382v1.2c0 2.6 2.1 4.6 4.6 4.6"/></g></g></svg>