<?xml version="1.0" encoding="utf-8"?>
<!-- Generator: Adobe Illustrator 21.0.2, SVG Export Plug-In . SVG Version: 6.00 Build 0)  -->
<svg version="1.1" id="Layer_1" xmlns="http://www.w3.org/2000/svg" xmlns:xlink="http://www.w3.org/1999/xlink" x="0px" y="0px"
	 viewBox="0 0 310 470" style="enable-background:new 0 0 310 470;" xml:space="preserve">
<style type="text/css">
	.st0{fill:none;stroke:#AFAFAF;stroke-miterlimit:10;}
	.st1{fill:none;stroke:#AFAFAF;stroke-linecap:square;stroke-miterlimit:10;}
</style>
<line class="st0" x1="128.5" y1="277.1" x2="211.3" y2="160.3"/>
<path class="st0" d="M159.3,187.1h-8.6c-34.7,0-62.9-28.1-62.9-62.9V121c0-34.7,28.1-62.9,62.9-62.9h8.6c34.7,0,62.9,28.1,62.9,62.9
	v3.2C222.1,159,194,187.1,159.3,187.1z"/>
<polyline class="st1" points="65.9,392.8 65.9,382 60.5,382 "/>
<polyline class="st1" points="139.8,419.4 139.8,382 134.3,382 "/>
<polyline class="st1" points="258.2,419.4 258.2,382 252.7,382 "/>
<polyline class="st1" points="11.5,392.8 11.5,382 6,382 "/>
<path class="st1" d="M24.6,370.8v11.2h23v23c0,8-6.4,14.4-14.4,14.4l0,0"/>
<path class="st1" d="M216.3,370.8v11.2h23v23c0,8-6.4,14.4-14.4,14.4l0,0"/>
<path class="st1" d="M51.8,399.3"/>
<path class="st1" d="M99.6,382h12.9c3.6,0,6.5,2.9,6.5,6.5v30.9H97.1h27.7"/>
<path class="st1" d="M157.8,382v37.4h7.3c10.5,0,19-8.5,19-19v-14c0-2.4-2-4.4-4.4-4.4h-5.7"/>
<line class="st1" x1="263.7" y1="382" x2="258.2" y2="382"/>
<path class="st1" d="M278.2,419.4v-19.6c0-9.8,8-17.8,17.8-17.8h8v37.4h-11.7"/>
<path class="st1" d="M278.2,382v1.2c0,2.6,2.1,4.6,4.6,4.6l0,0"/>
</svg>
