<?xml version="1.0" encoding="utf-8"?>
<!-- Generator: Adobe Illustrator 21.0.2, SVG Export Plug-In . SVG Version: 6.00 Build 0)  -->
<svg version="1.1" id="Layer_1" xmlns="http://www.w3.org/2000/svg" xmlns:xlink="http://www.w3.org/1999/xlink" x="0px" y="0px"
	 viewBox="0 0 310 470" style="enable-background:new 0 0 310 470;" xml:space="preserve">
<style type="text/css">
	.st0{fill:none;stroke:#AFAFAF;stroke-miterlimit:10;}
	.st1{fill:none;stroke:#AFAFAF;stroke-linecap:square;stroke-miterlimit:10;}
</style>
<line class="st0" x1="128.5" y1="247.1" x2="211.3" y2="130.3"/>
<path class="st0" d="M159.3,157.1h-8.6c-34.7,0-62.9-28.1-62.9-62.9V91c0-34.7,28.1-62.9,62.9-62.9h8.6c34.7,0,62.9,28.1,62.9,62.9
	v3.2C222.1,129,194,157.1,159.3,157.1z"/>
<line class="st0" x1="33.2" y1="431" x2="53.8" y2="401.9"/>
<path class="st0" d="M40.9,408.5h-2.1c-8.7,0-15.7-7-15.7-15.7V392c0-8.7,7-15.7,15.7-15.7h2.1c8.7,0,15.7,7,15.7,15.7v0.8
	C56.6,401.5,49.5,408.5,40.9,408.5z"/>
<polyline class="st1" points="116.6,436.5 116.6,379.6 110.3,379.6 "/>
<path class="st1" d="M161.7,425.5v-33.8c0-7.1-5.5-12.6-12.6-12.6h-10.2"/>
<polyline class="st1" points="287,392.9 287,379.6 280.3,379.6 "/>
<polyline class="st1" points="210.8,392.9 210.8,379.6 204.1,379.6 "/>
<path class="st1" d="M231.6,365.8v13.7h28.3v28.3c0,9.8-7.9,17.7-17.7,17.7l0,0"/>
<line class="st1" x1="138.5" y1="425.5" x2="168.4" y2="425.5"/>
<path class="st1" d="M265,400.8"/>
</svg>
